<svg id="reg" enable-background="new 0 0 24 24" height="512" viewBox="0 0 24 24" width="512" xmlns="http://www.w3.org/2000/svg"><path d="m11.989 5.017c-3.657-4.798-11.486-2.288-11.486 3.749 0 .009-.003.018-.003.027 0 5.647 7.698 12.707 11.5 12.707 3.791 0 11.5-7.06 11.5-12.708 0-6.047-7.861-8.563-11.511-3.775z" fill="#ff9800"/><path d="m11.989 4.061c-4.266-4.324-11.989-1.434-11.989 4.816 0 6.039 7.932 13.123 12 13.123s12-7.084 12-13.123c0-6.335-7.793-9.081-12.011-4.816zm6.49 12.541c-2.241 2.295-4.905 3.898-6.479 3.898-3.383 0-10.5-6.512-10.5-11.623h-.001c.232-5.558 6.917-7.112 9.895-3.22.302.392.89.391 1.191 0 4.374-5.706 15.992.602 5.894 10.945z"/></svg>