<svg id="reg" enable-background="new 0 0 24 24" height="512" viewBox="0 0 24 24" width="512" xmlns="http://www.w3.org/2000/svg"><path d="m11.803 1.57c8.19-.892 13.818 7.174 10.959 14.315-2.599 6.599-11.072 8.795-16.461 4.118-.88-.725-.87-.947-2.141-.947-1.474-.009-3.692.361-3.658-.252-.052-.653 1.55-1.091 2.417-1.894.782-.74.219-1.074-.193-3.516-.913-5.632 3.298-11.164 9.077-11.824z" fill="#03a9f4"/><path d="m9.467 5.627c-.32.054-.671-.012-.967.138.338 3.135.34 9.369.1 11.432-.05.211.244.22.394.229.814-.002 1.634.025 2.445-.039.151-.171.159-.412.267-.606.319.186.601.436.968.542 2.361.749 4.702-.824 4.819-3.349.156-2.867-1.84-4.54-4.364-4.099-.527.09-.97.389-1.352.727-.175.001-.15-.185-.159-.3.02-3.87.192-4.193.116-4.781-.755-.074-1.513.062-2.267.106z" fill="#fff"/><path d="m12.627 11.996c1.706-.318 2.409 1.598 1.428 2.573-.628.612-1.902.5-2.337-.262-.486-.803-.16-2.103.909-2.311z" fill="#03a9f4"/><path d="m11.727 1.073c-.001 0-.002 0-.004 0-2.918.333-5.632 1.897-7.445 4.291-1.784 2.355-2.546 5.314-2.09 8.121.138.815.293 1.404.406 1.834.198.749.198.749.013.923-.277.256-.688.486-1.084.709-.767.431-1.56.876-1.521 1.706.001.253.1.49.282.672.474.474 1.366.446 2.903.355.59-.035 1.576-.093 1.86.011.277.091.565.42.887.684 1.985 1.72 4.443 2.624 7.001 2.624.882 0 1.776-.108 2.667-.326 3.478-.854 6.329-3.324 7.624-6.604 1.447-3.607.901-7.619-1.459-10.731-2.352-3.101-6.1-4.696-10.04-4.269zm10.104 14.445c-1.118 2.833-3.58 4.965-6.587 5.702-2.953.724-6.058.081-8.584-2.199-.305-.275-.649-.587-1.1-.734-.678-.272-1.949-.109-3.246-.059.436-.246.921-.524 1.317-.89.838-.792.651-1.502.414-2.401-.112-.425-.251-.953-.377-1.697-.39-2.399.269-4.94 1.806-6.97 1.566-2.068 3.905-3.419 6.416-3.706 3.401-.368 6.651 1.007 8.681 3.683 2.038 2.689 2.51 6.153 1.26 9.271z"/><path d="m12.978 9.187c-.213.036-.411.096-.593.171.021-1.5.067-2.276.096-2.773.027-.447.042-.693.001-1.004-.044-.346-.322-.615-.668-.65-.576-.058-3.111.077-3.577.314-.279.141-.44.44-.406.749.321 2.971.332 8.993.113 10.907-.062.263-.008.533.148.742.377.505 1.095.392 1.556.406 2.406.014 1.785-.027 2.375-.304.125.065.261.124.41.167.462.146.933.219 1.396.219.879 0 1.733-.26 2.46-.767 1.101-.768 1.77-2.007 1.834-3.395.086-1.579-.419-2.94-1.422-3.832-.972-.863-2.294-1.199-3.723-.95zm2.451 6.945c-.725.504-1.653.631-2.565.343-.136-.039-.284-.137-.455-.251-.731-.488-1.21-.363-1.46.313-.515.021-1.037.013-1.474.009.171-2.297.16-7.027-.086-10 .366-.023 1.156-.112 1.6-.134-.055 1.012-.102 1.779-.11 4.012.025.766.611.973.909.962.544-.004.709-.596 1.445-.721.974-.169 1.85.041 2.47.593.655.582.982 1.515.921 2.635-.044.924-.479 1.74-1.195 2.239z"/><path d="m10.964 12.513c-.31.701-.264 1.531.112 2.149.306.535.873.896 1.554.993.695.098 1.418-.098 1.911-.577.694-.689.858-1.784.398-2.662-.836-1.597-3.243-1.557-3.975.097zm2.526 1.493c-.454.443-1.566.045-1.155-.886.086-.194.228-.312.42-.351.511-.092.746.134.854.342.13.246.146.633-.119.895z"/></svg>