<svg id="reg" enable-background="new 0 0 24 24" height="512" viewBox="0 0 24 24" width="512" xmlns="http://www.w3.org/2000/svg"><g fill="#0277bd"><circle cx="3.196" cy="3.196" r="2.646"/><circle cx="12" cy="3.196" r="2.646"/><circle cx="20.804" cy="3.196" r="2.646"/><circle cx="12" cy="12" r="2.646"/><circle cx="20.804" cy="12.001" r="2.646"/><circle cx="20.804" cy="20.658" r="2.646"/></g><path d="m20.805 0c-1.763 0-3.196 1.434-3.196 3.196s1.434 3.195 3.196 3.195c1.761 0 3.195-1.433 3.195-3.195s-1.434-3.196-3.195-3.196zm0 4.891c-.936 0-1.696-.761-1.696-1.695 0-.935.761-1.696 1.696-1.696s1.695.761 1.695 1.696c0 .934-.761 1.695-1.695 1.695z"/><path d="m20.805 17.609c-1.763 0-3.196 1.434-3.196 3.195 0 1.762 1.434 3.196 3.196 3.196 1.761 0 3.195-1.434 3.195-3.196s-1.434-3.195-3.195-3.195zm0 4.891c-.936 0-1.696-.761-1.696-1.696s.761-1.695 1.696-1.695 1.695.761 1.695 1.695c0 .935-.761 1.696-1.695 1.696z"/><path d="m20.805 8.804c-1.763 0-3.196 1.434-3.196 3.196s1.434 3.196 3.196 3.196c1.761 0 3.195-1.434 3.195-3.196s-1.434-3.196-3.195-3.196zm0 4.892c-.936 0-1.696-.761-1.696-1.696s.761-1.696 1.696-1.696 1.695.761 1.695 1.696-.761 1.696-1.695 1.696z"/><path d="m3.195 0c-1.761 0-3.195 1.434-3.195 3.196s1.434 3.195 3.195 3.195c1.763 0 3.196-1.434 3.196-3.195.001-1.762-1.433-3.196-3.196-3.196zm0 4.891c-.934 0-1.695-.761-1.695-1.695 0-.935.761-1.696 1.695-1.696.936 0 1.696.761 1.696 1.696.001.934-.76 1.695-1.696 1.695z"/><path d="m12 6.391c1.762 0 3.195-1.434 3.195-3.195 0-1.762-1.433-3.196-3.195-3.196s-3.195 1.434-3.195 3.196 1.433 3.195 3.195 3.195zm0-4.891c.935 0 1.695.761 1.695 1.696s-.761 1.695-1.695 1.695-1.695-.761-1.695-1.695c0-.935.76-1.696 1.695-1.696z"/><path d="m12 15.196c1.762 0 3.195-1.434 3.195-3.196s-1.433-3.196-3.195-3.196-3.195 1.434-3.195 3.196 1.433 3.196 3.195 3.196zm0-4.892c.935 0 1.695.761 1.695 1.696s-.76 1.696-1.695 1.696-1.695-.761-1.695-1.696.76-1.696 1.695-1.696z"/></svg>