<svg id="reg" enable-background="new 0 0 24 24" height="512" viewBox="0 0 24 24" width="512" xmlns="http://www.w3.org/2000/svg"><g fill="#b3b3b3"><path d="m10.878 5.83c-.868.35-1.802.606-2.752.606-2.716-1.591-6.401.067-6.401 3.553h.001c0 1.299.817 3.081 2.095 3.517v.051c-.949.426-1.212 2.598.051 3.378v.051c-1.378.462-2.286 1.35-2.286 2.885 0 2.644 2.463 3.378 4.619 3.378 2.626 0 4.579-.961 4.579-3.903 0-3.62-5.098-2.285-5.098-4.251 0-.693.364-.961.994-1.093 2.095-.395 3.407-2.054 3.407-4.22 0-.375-.075-.729-.202-1.078.338-.077.667-.17.994-.283v-2.591zm-4.725 12.57v-.001c.858 0 2.08.154 2.08 1.284 0 1.119-.984 1.35-1.903 1.35-.873 0-2.186-.139-2.186-1.294.005-1.144 1.115-1.339 2.009-1.339zm-.161-6.648v-.001c-1.11 0-1.58-.667-1.58-1.735 0-2.531 3.079-2.505 3.079-.025 0 1.042-.404 1.761-1.499 1.761z"/><path d="m22.5 17.058v-2.516c-.404.283-.984.426-1.479.426-.934 0-1.101-.924-1.101-1.685v-4.677c1.6 0 2.575.051 2.575.051v-2.438h-2.575c0-.703-.026-1.406.075-2.115h-2.862c.09.524.075.97.075 2.115h-1.212v2.439c.843-.134.858-.051 1.212-.051v.051h-.025v4.503c0 2.233.318 4.4 3.019 4.4.758-.001 1.627-.129 2.298-.503z"/><path d="m13.393.71c-1.009 0-1.741.893-1.741 1.884 0 .976.742 1.859 1.741 1.859.974 0 1.706-.898 1.706-1.859 0-.96-.706-1.884-1.706-1.884z"/><path d="m12.015 6.209c.091.759.081 10.253 0 11.182h2.802c-.081-.923-.091-10.433 0-11.182z"/></g><path d="m3.481 19.816c0 .753.375 2.016 2.889 2.016 2.356 0 2.611-1.449 2.611-2.071 0-2.222-2.981-2.042-2.785-2.005-2.442 0-2.712 1.438-2.715 2.06zm2.716-.561c1.284-.001 1.284.38 1.284.505 0 .214 0 .571-1.111.571-.922 0-1.389-.173-1.389-.512.001-.183.003-.564 1.216-.564z"/><path d="m3.744 10.303c0 3.249 4.512 3.319 4.512-.024 0-3.433-4.512-3.426-4.512.024zm2.295.948c-.435-.001-.795-.072-.795-.948 0-1.487 1.512-1.449 1.512-.024 0 .972-.398.972-.717.972z"/><path d="m23.021 14.486c0-.606-.68-.961-1.181-.614-.24.168-.648.281-1.016.281-.529 0-.29-2.027-.314-4.719 1.222.014 2.507.33 2.507-.704-.132-1.229.435-3.136-.75-3.136h-1.772c.001-.416.014-.816.069-1.213.065-.447-.283-.855-.742-.855-1.418.163-3.775-.509-3.539.877.056.321.063.628.063 1.192-.267.035-.678-.121-1.008.281-.397-.505-.821-.198-3.324-.291-.222 0-.417.097-.553.247-.541-.913-1.237.137-3.147.216-3.16-1.674-7.2.345-7.198 4.229 0 1.24.605 2.765 1.633 3.621-.466.817-.529 2.061.01 2.978-3.107 2.003-2.389 7.124 3.488 7.124 4.322 0 5.229-2.484 5.229-4.568 0-3.885-4.987-3.367-4.987-4.158 0-.222 0-.256.36-.333 2.732-.515 4.265-3.046 3.903-5.385.302-.093.413-.121.567-.262.046 8.308-.373 8.729.695 8.729 1.551-.166 3.603.481 3.488-.815-.051-.583-.069-4.892-.053-7.892.309.243.566.15.871.114 0 4.363-.624 8.76 3.703 8.76.712 0 1.743-.102 2.612-.587.237-.132.385-.383.385-.655v-2.462zm-12.952-6.293c-2.089.582.09 1.393-1.197 3.657-1.346 2.367-3.883.968-3.883 3.424 0 1.395 1.382 1.756 2.492 2.046 1.696.443 2.495.796 2.495 2.112 0 1.428-.424 3.068-3.729 3.068-4.668 0-4.627-3.8-2.044-4.666.553-.185.728-1.046.156-1.4-.71-.438-.527-1.808-.137-1.982.576-.259.619-1.211-.065-1.444-1.649-.564-2.431-4.168.06-5.596 1.958-1.122 3.457.139 3.91.139.617 0 1.259-.096 1.942-.291zm2.721 8.33c.042-2.085.055-7.327.006-9.439h1.179c-.049 2.112-.036 7.354.006 9.439zm8.731-.059c-.416.147-.933.226-1.497.226-2.631 0-2.179-2.304-2.179-8.009 0-.683-.608-.769-1.186-.774v-.813c.101-.029 1.186.185 1.186-.75.001-.438.004-.998-.005-1.319h1.165c-.037.969-.18 2.069.742 2.069h1.77v.858c-3.025-.082-2.455-.357-2.522 3.477-.043 2.43-.117 4.683 2.526 4.154z"/><path d="m15.812 2.593c0-3.463-4.872-3.393-4.872 0-.001 3.379 4.872 3.414 4.872 0zm-1.5 0c0 1.438-1.872 1.389-1.872 0-.001-1.421 1.872-1.479 1.872 0z"/></svg>