<svg id="reg" enable-background="new 0 0 24 24" height="512" viewBox="0 0 24 24" width="512" xmlns="http://www.w3.org/2000/svg"><g stroke-width=".094"><path d="m12.005.47c.063.036.117.09.166.145 1.857 1.875 3.719 3.749 5.572 5.628-1.169 1.156-2.321 2.331-3.481 3.492-.436.443-.882.876-1.313 1.328-.324-.786-.634-1.576-.944-2.367 0-.822.004-1.644 0-2.471-.005-1.915-.009-3.835 0-5.755z" fill="#dd4b39" stroke="#dd4b39"/><path d="m6.244 6.225h5.761c.004.827 0 1.649 0 2.471-.319.777-.63 1.558-.935 2.344-.099-.054-.171-.136-.247-.217l-4.56-4.58z" fill="#ef851c" stroke="#ef851c"/><path d="m17.744 6.243.018-.014c-.004 1.924-.004 3.853 0 5.777h-2.478c-.774-.325-1.556-.623-2.334-.944.432-.452.877-.885 1.313-1.328 1.16-1.16 2.311-2.335 3.481-3.491z" fill="#7e3794" stroke="#7e3794"/><path d="m5.304 7.196c.323-.311.625-.646.958-.953l4.56 4.58c.076.081.148.163.247.217-.103.077-.234.104-.351.158-.666.271-1.34.524-2.001.813-.823-.009-1.646-.005-2.469-.005-1.916-.005-3.832.009-5.748-.005 1.597-1.607 3.203-3.206 4.804-4.805z" fill="#ffbb1b" stroke="#ffbb1b"/><path d="m6.248 12.007c.823 0 1.646-.005 2.469.005.778.321 1.556.623 2.334.94-1.277 1.301-2.568 2.584-3.85 3.88-.324.307-.616.646-.958.935.001-1.921-.004-3.84.005-5.76z" fill="#1a8763" stroke="#1a8763"/><path d="m15.283 12.007h2.478c1.911.005 3.827-.005 5.739.005-1.228 1.251-2.474 2.489-3.706 3.731-.684.682-1.358 1.373-2.042 2.046-1.529-1.554-3.081-3.09-4.614-4.644-.063-.068-.13-.126-.207-.172.13-.081.274-.122.414-.181.648-.261 1.295-.514 1.938-.785z" fill="#427fed" stroke="#427fed"/><path d="m11.051 12.951c.328.786.625 1.581.953 2.367-.004.822 0 1.649-.004 2.471v3.975c-.009.592.013 1.183-.009 1.771-.094-.045-.153-.131-.229-.203-1.839-1.856-3.674-3.713-5.518-5.565.342-.289.634-.628.958-.935 1.281-1.297 2.572-2.58 3.849-3.881z" fill="#65b045" stroke="#65b045"/><path d="m12.931 12.974c.076.045.144.104.207.172 1.534 1.554 3.085 3.09 4.614 4.644-1.92-.005-3.836.005-5.752 0 .004-.822 0-1.649.004-2.471.302-.783.626-1.559.927-2.345z" fill="#43459d" stroke="#43459d"/></g><path d="m.75 12.75h4.875v4.875c0 .199.079.39.22.53l5.625 5.625c.468.468 1.28.142 1.28-.53v-4.875h4.875c.199 0 .39-.079.53-.22l5.625-5.625c.47-.469.139-1.28-.53-1.28h-4.875v-4.875c0-.199-.079-.39-.22-.53l-5.625-5.625c-.472-.472-1.28-.136-1.28.53v4.875h-4.875c-.199 0-.39.079-.53.22l-5.625 5.625c-.471.469-.139 1.28.53 1.28zm5.936-5.625h5.314c.414 0 .75-.336.75-.75v-3.814l4.125 4.125v5.314c0 .414.336.75.75.75h3.814l-4.125 4.125h-5.314c-.414 0-.75.336-.75.75v3.814l-4.125-4.125v-5.314c0-.414-.336-.75-.75-.75h-3.814z"/><path d="m8.95 12.711 1.754.584.584 1.754c.229.682 1.196.681 1.424 0l.584-1.754 1.754-.584c.681-.227.682-1.195 0-1.423l-1.754-.584-.584-1.754c-.229-.682-1.196-.681-1.424 0l-.584 1.754-1.754.585c-.681.227-.682 1.195 0 1.422zm3.05-1.153c.076.205.237.366.442.442-.205.076-.366.237-.442.442-.076-.205-.237-.366-.442-.442.205-.076.366-.237.442-.442z"/></svg>