<svg id="reg" enable-background="new 0 0 24 24" height="512" viewBox="0 0 24 24" width="512" xmlns="http://www.w3.org/2000/svg"><path d="m23.5 12c-.001-7.19-6.549-12.731-13.873-11.263-4.539.906-8.093 4.53-8.927 9.085-1.303 7.097 3.925 13.662 10.695 13.662l10.405.016c.939 0 1.7-.76 1.7-1.7z" fill="#ff9800"/><path d="m17.861 17.61c0 .245-.293.367-.467.194l-1.46-1.46c-3.718 3.375-9.801.779-9.801-4.344 0-3.24 2.627-5.865 5.865-5.865h.001c3.238 0 5.862 2.626 5.862 5.865z" fill="#fff"/><path d="m11.998 5.751c-3.445 0-6.248 2.804-6.248 6.249 0 2.502 1.421 4.686 3.707 5.698 2.081.922 4.388.676 6.178-.618l.894.893c.633.629 1.717.182 1.717-.714v-5.259c-.001-3.445-2.804-6.249-6.248-6.249zm4.747 10.318c-.196-.127-.841-1.208-1.561-.552-1.405 1.275-3.363 1.587-5.12.81-1.736-.769-2.814-2.427-2.814-4.327 0-2.618 2.131-4.749 4.749-4.749 2.617 0 4.746 2.13 4.746 4.749z"/><path d="m11.665.004c-10.417.268-15.132 12.307-8.829 19.875 2.174 2.609 5.299 4.106 8.571 4.106l10.18.015c1.331 0 2.413-1.083 2.413-2.413v-9.587c-.001-3.268-1.291-6.322-3.633-8.601-2.342-2.278-5.416-3.485-8.702-3.395zm10.835 21.583c0 .503-.409.913-.912.913l-10.18-.015c-2.827 0-5.531-1.3-7.42-3.566-2.052-2.464-2.893-5.713-2.305-8.915.893-4.876 5.013-8.372 10.021-8.5 2.944-.073 5.615 1.023 7.616 2.97 2.051 1.994 3.18 4.667 3.18 7.526z"/></svg>