<svg id="reg" enable-background="new 0 0 24 24" height="512" viewBox="0 0 24 24" width="512" xmlns="http://www.w3.org/2000/svg"><path d="m2.486 4.673c0-2.318 1.3-4.176 3.659-4.176 2.022 0 3.632 1.351 3.632 4.232v3.638l4.098-6.072c1.536-2.28 4.116-2.148 5.616-.657 1.382 1.371 1.374 3.341.513 4.609l-3.704 5.509 4.492 5.894c.988 1.277.968 3.313-.367 4.731-1.538 1.576-3.979 1.397-5.105 0l-5.544-7.103v3.922c0 2.965-1.62 4.278-3.587 4.278-2.451 0-3.704-1.858-3.704-4.278v-14.527z" fill="#4caf50"/><path d="m1.986 19.043c0 6.539 8.599 6.735 8.599 0v-1.648l4.063 5.23c1.402 1.749 4.311 1.889 6.103.043 1.475-1.574 1.649-3.98.407-5.594l-4.051-5.34 3.307-4.942c1.987-2.94-.294-6.541-3.408-6.753-3.409-.239-4.385 3.437-6.422 5.946-.033-.1.58-6.021-4.264-6.021-2.154 0-4.335 1.672-4.335 4.869v14.21zm1.5-14.211c0-2.314 1.47-3.369 2.835-3.369 3.81 0 2.519 5.749 2.764 6.982 0 .738.961 1.03 1.373.418 3.585-4.827 4.114-7.488 6.447-7.33 1.916.131 3.62 2.416 2.265 4.42l-3.606 5.39c-.178.266-.167.615.026.87l4.377 5.771c.682.886.805 2.468-.301 3.648-1.174 1.209-3.031 1.071-3.84.062l-5.398-6.949c-.436-.561-1.342-.254-1.342.46-.257 1.421 1.094 7.318-2.759 7.318-1.368 0-2.84-1.089-2.84-3.481v-14.21z"/></svg>