<svg id="reg" enable-background="new 0 0 24 24" height="512" viewBox="0 0 24 24" width="512" xmlns="http://www.w3.org/2000/svg"><path d="m12.129.5c-5.101 0-9.129 4.301-9.129 9.491 0 5.42 7.086 13.509 9.129 13.509 1.785 0 8.871-8.087 8.871-13.509 0-5.188-4.028-9.491-8.871-9.491zm.012 14.433c-3.186 0-5.643-2.444-5.643-5.304 0-1.338.429-2.53 1.171-3.479v.029c0 1.193.958 2.141 2.143 2.141 1.186.001 2.188-.977 2.188-2.17 0-.879-.532-1.634-1.291-1.966.46-.114.944-.176 1.446-.176 2.857 0 5.316 2.445 5.316 5.621 0 2.861-2.458 5.304-5.33 5.304z" fill="#e84f3b"/><path d="m10.443 5.041c1.251.55 1.046 2.592-.578 2.592-.612 0-1.327-.348-1.327-1.327v-.029c0-.712-.905-1.023-1.342-.46-1.442 1.856-1.702 4.308-.679 6.4 2.773 5.667 11.551 3.816 11.551-2.537 0-3.445-2.655-6.249-5.918-6.249-.534 0-1.068.065-1.587.194-.692.174-.773 1.129-.12 1.416zm2.307 1.236c0-.476-.119-.933-.333-1.337 2.313.148 4.152 2.218 4.152 4.74 0 4.721-6.614 6.149-8.704 1.877-.537-1.096-.604-2.325-.227-3.443 1.478 1.824 5.112 1.134 5.112-1.837z"/><path d="m2.5 10.035c0 5.399 6.907 13.965 9.625 13.965 2.242 0 9.375-8.312 9.375-13.965 0-5.533-4.206-10.035-9.375-10.035-5.307 0-9.625 4.502-9.625 10.035zm17.5 0c0 5.043-6.524 12.308-7.875 12.465-1.223-.001-8.125-7.248-8.125-12.465 0-4.706 3.645-8.535 8.125-8.535 4.269 0 7.875 3.909 7.875 8.535z"/></svg>