<svg id="reg" enable-background="new 0 0 24 24" height="512" viewBox="0 0 24 24" width="512" xmlns="http://www.w3.org/2000/svg"><path d="m22 17.5v.17c-1.97 3.48-5.71 5.83-10 5.83-.86 0-1.7-.09-2.5-.27v-5.73z" fill="#4caf50"/><path d="m9.51 6.51-8.81 7.66c-.13-.7-.2-1.43-.2-2.17 0-3.94 1.98-7.42 5.01-9.49z" fill="#ab47bc"/><path d="m6.5 12.5v9.6c-2.15-1.17-3.89-3.01-4.92-5.24v-.01z" fill="#673ab7"/><path d="m23.5 12c0 .86-.09 1.7-.27 2.5h-5.73v-12.6c3.58 1.95 6 5.74 6 10.1z" fill="#ffc107"/><path d="m14.5.77v6.73l-6.43-6.31c1.23-.45 2.55-.69 3.93-.69.86 0 1.7.09 2.5.27z" fill="#f44336"/><path d="m9.39 23.718c5.074 1.141 10.451-1.218 13.046-5.801.257-.456.062-1.286-.653-1.286h-12.229c-.414 0-.75.336-.75.75v5.605c0 .35.243.655.586.732zm.914-5.588h10.215c-2.31 3.204-6.307 4.88-10.215 4.238z"/><path d="m10.094 6.099-3.913-3.913c-.255-.256-.656-.292-.953-.089-3.924 2.68-5.894 7.455-5.02 12.163.106.572.794.808 1.229.429l8.618-7.494c.329-.285.347-.788.039-1.096zm-8.574 6.531c-.193-3.458 1.313-6.809 4.054-8.93l2.891 2.892z"/><path d="m6.123 11.927-4.813 4.256c-.236.209-.329.573-.185.886 1.064 2.305 2.888 4.248 5.136 5.47.494.27 1.108-.085 1.108-.659v-9.391c.001-.64-.758-.992-1.246-.562zm-.253 8.597c-1.307-.941-2.391-2.179-3.14-3.595l3.14-2.776z"/><path d="m17.739 1.461c-.503-.274-1.109.094-1.109.659v12.326c0 .414.336.75.75.75h5.605c.351 0 .655-.243.732-.585 1.168-5.19-1.29-10.597-5.978-13.15zm4.629 12.235h-4.238v-10.22c3.212 2.313 4.887 6.295 4.238 10.22z"/><path d="m15.196 7.598v-6.584c0-.351-.243-.655-.585-.732-2.202-.495-4.586-.34-6.713.438-.517.19-.661.854-.268 1.24l6.291 6.173c.469.461 1.275.134 1.275-.535zm-1.5-1.787-4.11-4.033c1.343-.316 2.756-.368 4.109-.146v4.179z"/></svg>