<svg id="reg" enable-background="new 0 0 24 24" height="512" viewBox="0 0 24 24" width="512" xmlns="http://www.w3.org/2000/svg"><path d="m7.714 17.75h14.286v-17.25h-20v23h5.714zm0-11.5h8.571v5.75h-8.571z" fill="#ff9800"/><path d="m7.821 24c.414 0 .75-.336.75-.75v-4.875h13.179c.414 0 .75-.336.75-.75v-16.875c0-.414-.336-.75-.75-.75h-19.5c-.414 0-.75.336-.75.75v22.5c0 .414.336.75.75.75zm-4.821-22.5h18v15.375h-13.179c-.414 0-.75.336-.75.75v4.875h-4.071z"/><path d="m7.821 12.75h8.357c.414 0 .75-.336.75-.75v-5.625c0-.414-.336-.75-.75-.75h-8.357c-.414 0-.75.336-.75.75v5.625c0 .414.336.75.75.75zm.75-5.625h6.857v4.125h-6.857z"/></svg>