<svg id="reg" enable-background="new 0 0 24 24" height="512" viewBox="0 0 24 24" width="512" xmlns="http://www.w3.org/2000/svg"><circle cx="12" cy="12" fill="#e64a19" r="11.5"/><path d="m13.835 7.683h-3.973v5.633h3.973c1.161 0 2.103-1.262 2.103-2.817s-.942-2.816-2.103-2.816z" fill="#fff"/><path d="m12 0c-6.617 0-12 5.383-12 12s5.383 12 12 12 12-5.383 12-12-5.383-12-12-12zm0 22.5c-5.79 0-10.5-4.71-10.5-10.5s4.71-10.5 10.5-10.5 10.5 4.71 10.5 10.5-4.71 10.5-10.5 10.5z"/><path d="m13.467 6.848h-3.913c-.414 0-.75.336-.75.75v8.805c0 .414.336.75.75.75s.75-.336.75-.75v-2.185h3.163c2.032 0 3.685-1.653 3.685-3.685s-1.653-3.685-3.685-3.685zm0 5.869h-3.163v-4.37h3.163c1.205 0 2.185.98 2.185 2.185s-.98 2.185-2.185 2.185z"/></svg>