<svg id="reg" enable-background="new 0 0 24 24" height="512" viewBox="0 0 24 24" width="512" xmlns="http://www.w3.org/2000/svg"><path d="m1.5 13.63v-11.13c0-1.105.895-2 2-2h17c1.105 0 2 .895 2 2v11.13z" fill="#b1b3b5"/><path d="m13.5 10.021c0-2.203 2.708-3.391 4.277-1.777.96.987.98 2.553 0 3.533-1.56 1.56-4.277.441-4.277-1.756z" fill="#008ed3"/><path d="m.581 12.641c-.117.115-.157.536.224.933.93.966 2.738 1.789 4.607 2.31-1.894 5.715 2.597 8.988 5.09 7.079.468-.359.702-.796.702-1.312v-8.086h-7.371c-2.066-.755-2.863-1.352-3.252-.924z" fill="#f6921e"/><path d="m23.419 12.641c-.388-.427-1.134.15-3.252.923h-7.371v8.086c0 1.105 1.208 1.85 2.238 1.85 2.763 0 4.99-3.285 3.554-7.616 1.869-.521 3.677-1.344 4.607-2.31.381-.397.341-.818.224-.933z" fill="#008ed3"/><path d="m5.5 10.021c0-3.32 5-3.316 5 0 0 3.34-5 3.194-5 0z" fill="#f6921e"/><path d="m23.021 11.747v-10.997c0-.414-.336-.75-.75-.75h-20.542c-.414 0-.75.336-.75.75v10.996c-.955.107-1.394 1.352-.47 2.314.822.853 2.3 1.654 4.119 2.243-.858 3.424.493 5.845 2 6.917 1.355.964 3.078 1.084 4.363.099 1.42-1.087.872-2.116.956-5.675h.081v3.796c0 1.531 1.52 2.56 2.938 2.56 2.861 0 5.544-3.099 4.404-7.696 1.819-.589 3.298-1.39 4.121-2.245.91-.946.522-2.19-.47-2.312zm-1.5-10.247v10.609c-.479.198-.979.416-1.666.67h-2.282c1.411-.863 1.89-2.502 1.287-3.955-.505-1.219-1.627-1.977-2.928-1.977-1.773 0-3.216 1.442-3.216 3.216 0 1.142.584 2.146 1.552 2.716h-4.495c.868-.493 1.509-1.404 1.509-2.716 0-1.773-1.424-3.216-3.175-3.216-1.773 0-3.216 1.442-3.216 3.216 0 1.125.521 2.136 1.557 2.716h-2.303c-.69-.256-1.193-.476-1.666-.672v-10.607zm-7.303 8.563c0-.946.77-1.716 1.716-1.716.816 0 1.332.543 1.542 1.051.585 1.414-.792 2.793-2.208 2.207-.507-.21-1.05-.726-1.05-1.542zm-7.826 0c0-.946.77-1.716 1.716-1.716.924 0 1.675.77 1.675 1.716 0 1.216-.892 1.647-1.654 1.647-.837.001-1.737-.515-1.737-1.647zm11.851 5.014c-.408.113-.647.547-.511.958 1.297 3.914-.718 6.465-2.766 6.465-.651 0-1.438-.473-1.438-1.06 0-.104.005-4.443.005-4.546 0-.414-.336-.75-.75-.75h-1.562c-.402 0-.732.317-.749.719-.173 4.131.348 4.698-.394 5.266-.714.546-1.703.494-2.582-.13-1.196-.852-2.236-2.924-1.229-5.963.136-.412-.103-.845-.511-.958-1.251-.35-2.363-.81-3.183-1.304.339.14.729.297 1.18.461.232.086-.743.03 16.235.045.188 0 .4-.078 1.43-.502-.818.493-1.927.951-3.175 1.299z"/></svg>