<svg id="reg" enable-background="new 0 0 24 24" height="512" viewBox="0 0 24 24" width="512" xmlns="http://www.w3.org/2000/svg"><path d="m20.277 19.537c.033-.146.087-.381.136-.472.878-.132 2.683-.435 3.028-1.199.174-.393-.075-.714-.393-.762v-.001c-3.074-.485-4.46-3.507-4.517-3.635-.005-.008-.008-.017-.013-.025-.445-.868.126-1.148 1.13-1.454 2.021-.602 1.782-1.719.794-2.057-.923-.361-1.51.518-2.243.196.182-2.92.487-4.924-1.668-6.875-2.486-2.249-6.829-2.035-9.069.004-2.11 1.921-1.86 3.873-1.666 6.872-.41.172-.996-.013-1.401-.196-1.021-.457-2.767 1.044-.381 1.947 1.034.389 2.012.499 1.466 1.562-.005.008-.009.017-.012.025-.759 1.664-2.433 3.304-4.518 3.634-.334.052-.561.391-.395.762v.002c.341.762 2.153 1.068 3.029 1.2.079.142.17.671.27.992.288.933 1.292-.011 3.214.299 1.424.228 2.63 2.142 4.906 1.982 1.353.081 2.359-.517 3.342-1.181l.001-.002c.957-.646 1.62-1.133 3.68-.744 1.006.187 1.091-.04 1.28-.874z" fill="#ffeb3b"/><path d="m3.187 19.809c.273 1.2.566 1.697 2.14 1.439.458-.076 1.03-.171 1.734-.055 1.168.194 4.256 4.128 8.647.658.857-.6 1.325-.932 2.988-.606.726.141 1.657-.008 2.112-1.436 4.339-.781 3.407-3.174 2.107-3.383-2.26-.369-3.759-2.702-3.919-3.446.159-.098.507-.219.729-.295 3.665-1.268 1.625-4.354-.867-3.402.163-2.6.21-4.683-1.917-6.68-2.261-2.116-5.754-2.213-8.035-1.212-3.976 1.738-3.945 5.105-3.768 7.932-1.585-.606-2.66.267-2.833 1.162-.262 1.411 1.086 1.885 1.89 2.168.281.099.75.264.821.317-.087.101-.591 2.342-3.576 3.332-.57.189-1.109.368-1.343.89-.139.312-.128.662.036 1.039.403.936 1.713 1.338 3.054 1.578zm3.115-6.017c.66-1.33-.206-2.055-1.608-2.549-.296-.104-.846-.298-.918-.476.025-.063.222-.189.409-.189.058.004.224.068.334.109 4.742 1.796-.853-5.374 4.988-7.926 1.789-.784 4.643-.722 6.409.933 2.831 2.656.604 6.534 1.832 7.093.874.397 1.71-.214 2.012-.223.235 0 .44.14.462.19.004.177-.615.391-.985.519-1.71.591-2.244 1.299-1.277 3.062.729 1.33 2.271 2.985 4.313 3.487-1.433.828-2.521.099-2.839 1.351-.164.665-.269.642-.45.607-5.066-.992-4.72 4.27-9.869.831-1.757-1.173-2.1-1.048-4.385-.784-.096-.377-.158-.785-.291-1.031-.361-.668-1.697-.33-2.744-1.001 2.101-.719 3.522-1.565 4.607-4.003z"/></svg>