<svg id="reg" enable-background="new 0 0 24 24" height="512" viewBox="0 0 24 24" width="512" xmlns="http://www.w3.org/2000/svg"><path d="m6.868 21.25h9.36l-2.743-7.6h4.462l-.001-.001c3.067 0 5.553-2.441 5.553-5.45 0-3.008-2.487-5.449-5.553-5.449-2.791 0-5.096 2.018-5.49 4.646h-.18c-.393-2.629-2.701-4.646-5.491-4.646-3.067 0-5.552 2.441-5.552 5.449 0 2.982 2.44 5.405 5.468 5.449v.002h.167v1.857l-6.368-1.694v7.247l6.368-1.879zm11.19-14.59c.868 0 1.571.689 1.571 1.538 0 .851-.703 1.542-1.571 1.542-.865-.002-1.566-.691-1.566-1.542 0-.85.7-1.538 1.566-1.538zm-11.274 3.077c-.866 0-1.568-.687-1.568-1.54 0-.85.702-1.539 1.568-1.539s1.568.689 1.568 1.539c0 .853-.703 1.54-1.568 1.54z" fill="#cfd8dc"/><path d="m17.927 6.036c-1.258 0-2.282 1.01-2.282 2.251s1.023 2.252 2.282 2.255c1.261 0 2.287-1.012 2.287-2.255-.001-1.241-1.027-2.251-2.287-2.251zm.002 3.007c-.433-.001-.784-.34-.784-.755s.351-.751.782-.751c.434 0 .787.337.787.751-.001.416-.354.755-.785.755z"/><path d="m17.818 2.217c-2.325 0-4.408 1.3-5.458 3.231-1.051-1.931-3.135-3.231-5.461-3.231-3.408 0-6.181 2.724-6.181 6.071 0 2.98 2.42 5.481 5.532 5.872l-.004.292-5.302-1.407c-.476-.125-.944.233-.944.726v7.076c0 .501.483.861.962.719l5.268-1.551c.069.363-.318 1.768.75 1.768h9.157c.519 0 .882-.517.705-1.005l-2.32-6.417 3.296-.001c3.409 0 6.182-2.724 6.182-6.072 0-3.347-2.773-6.071-6.182-6.071zm.001 10.644h-4.365c-.519 0-.882.516-.706 1.005l2.32 6.417h-7.338v-1.271c0-.499-.48-.862-.962-.719l-5.268 1.551v-5.098l5.288 1.403c.474.124.935-.228.942-.714l.03-1.961c.006-.415-.326-.755-.739-.761-2.649-.039-4.804-2.023-4.804-4.424 0-2.521 2.1-4.571 4.681-4.571 2.306 0 4.297 1.676 4.631 3.898.13.861 1.53.862 1.66 0 .333-2.222 2.323-3.898 4.628-3.898 2.582 0 4.682 2.051 4.682 4.571s-2.099 4.571-4.68 4.572z"/><path d="m6.897 6.034c-1.259 0-2.284 1.01-2.284 2.252 0 1.243 1.024 2.253 2.284 2.253s2.284-1.011 2.284-2.253-1.024-2.252-2.284-2.252zm0 3.006c-.432 0-.784-.338-.784-.753s.352-.752.784-.752.784.337.784.752-.351.753-.784.753z"/></svg>