<svg id="reg" enable-background="new 0 0 24 24" height="512" viewBox="0 0 24 24" width="512" xmlns="http://www.w3.org/2000/svg"><path d="m5.881 3.939h-3.881c1.793 13.922 7.137 18.352 8.548 19.202.797.483 1.487.46 2.218.047 1.153-.659 4.603-4.136 6.512-8.207.798-.003 1.767-.096 2.722-.314v-2.747c-.101.018-.761.203-1.68.203-2.875 0-5.09-2.028-5.09-5.553 0-1.726.67-2.617 1.61-2.617 1.866 0 1.64 3.088 1.056 5.007 0 0 .883 1.568 3.305 1.078.512-1.151.799-2.647.799-3.955 0-3.526-1.781-5.583-5.045-5.583-6.963-.034-6.876 10.751-1.158 13.679-1.092 2.205-2.482 4.148-3.932 5.612-2.63-3.211-5.007-7.494-5.984-15.852z" fill="#00ae82"/><path d="m6.769 4.027c-.044-.378-.365-.663-.745-.663h-3.79c-.453 0-.802.399-.744.846 1.173 9.128 4.925 17.446 8.727 19.348.968.484 1.981.559 2.904.037 1.267-.725 4.521-4.044 6.463-7.94.781-.034 1.6-.144 2.35-.315.341-.078.583-.381.583-.731v-2.686c0-.463-.417-.818-.879-.739-2.202.386-3.893-.118-4.885-1.453-1.014-1.366-1.082-3.324-.563-4.355.683-1.362 1.871.08.851 3.432-.059.196-.036.407.064.586.046.082 1.163 2.003 4.031 1.422.238-.048.438-.208.537-.43 5.151-11.587-10.789-14.402-10.789-3.74 0 3.319 1.451 6.227 3.833 7.777-.803 1.506-1.756 2.887-2.8 4.054-2.1-2.739-4.245-6.707-5.148-14.45zm9.611 10.437c.182-.368.035-.813-.33-1-2.262-1.16-3.667-3.773-3.667-6.819 0-8.109 11.773-6.328 8.076 2.759-1.042.107-1.616-.278-1.876-.538.411-1.561.563-3.595-.253-4.696-.803-1.086-2.607-1.204-3.479.531-1.609 3.199.473 8.559 6.167 8.075v1.218c-.633.109-1.294.169-1.911.172-.29.001-.553.169-.676.432-1.785 3.812-5.052 7.122-6.049 7.693-.423.24-.911.215-1.491-.075-2.842-1.421-6.465-8.246-7.797-17.352h2.266c1.076 8.333 3.592 12.376 5.927 15.233.27.33.786.384 1.114.053 1.529-1.546 2.905-3.513 3.979-5.686z"/></svg>