<svg id="reg" enable-background="new 0 0 24 24" height="512" viewBox="0 0 24 24" width="512" xmlns="http://www.w3.org/2000/svg"><path d="m15.809 9c1.286-1.8 4.654-5.656 6.725-4.912.864.268 1.394 1.248.517 2.711-2.343 3.45-2.844 4.236-4.986 8.571-1.068 2.204-2.362 3.747-4.753 2.824-1.95-.996-2.236-3.491-2.064-5.672-2.406 3.933-3.006 8.755-7.092 7.944-4.12-1.117-4.434-11.229-2.709-14.789 1.015-1.963 3.366-1.976 4.369-.811 1.029 1.196.728 3.651.571 5.258 1.062-1.847 2.904-4.484 4.606-5.793 2.724-2.028 5.703-.609 4.816 4.669z" fill="#ff5722"/><path d="m15.809 9c1.286-1.8 4.654-5.656 6.725-4.912.864.268 1.394 1.248.517 2.711-2.343 3.45-2.844 4.236-4.986 8.571-1.068 2.204-2.362 3.747-4.753 2.824-1.95-.996-2.236-3.491-2.064-5.672-2.406 3.933-3.006 8.755-7.092 7.944-4.12-1.117-4.434-11.229-2.709-14.789 1.015-1.963 3.366-1.976 4.369-.811 1.029 1.196.728 3.651.571 5.258 1.062-1.847 2.904-4.484 4.606-5.793 2.724-2.028 5.703-.609 4.816 4.669z" fill="none"/><path d="m16.603 6.776c-.324-4.352-4.39-6.114-9.188.596-.046-1.056-.269-2.076-.896-2.803-1.349-1.558-4.279-1.43-5.516.952-1.678 3.441-1.789 14.117 3.178 15.45 3.694.729 4.947-2.467 6.462-5.674.808 4.014 4.531 4.777 6.605 2.471 1.24-1.211 1.748-3.908 6.205-10.44 1.955-3.246-1.648-6.401-6.85-.552zm5.588-.258c-4.897 7.172-4.863 9.073-6.025 10.212-1.618 1.797-4.548.787-4.154-4.163.062-.782-.977-1.123-1.387-.453-2.376 3.863-2.845 8.038-6.104 7.396-3.414-.92-3.726-10.14-2.18-13.315.718-1.378 2.362-1.43 3.042-.644.357.413.723 1.113.379 4.551-.08.799.995 1.146 1.396.449 4.945-8.555 8.782-7.237 7.829-1.595-.133.779.885 1.208 1.349.562 3.968-5.527 7.223-5.279 5.855-3z"/></svg>